<?xml version="1.0" encoding="UTF-8"?>
<svg id="_Слой_1" data-name="Слой 1" xmlns="http://www.w3.org/2000/svg" viewBox="0 0 500 174.37">
  <g>
    <polygon points="195 37.21 195 31.9 174.08 31.9 174.08 46.45 192.27 46.45 192.27 52.55 174.08 52.55 174.08 68.57 195 68.57 195 62.48 201.03 62.48 201.03 74.66 161.81 74.66 161.81 68.57 166.69 68.57 166.69 31.9 161.81 31.9 161.81 25.8 201.03 25.8 201.03 37.21 195 37.21" style="stroke-width: 0px;"/>
    <path d="M241.9,51.74v16.96h4.29v5.97h-11.01v-22.5c0-2.14-.31-3.67-.92-4.6-.62-.93-1.63-1.39-3.03-1.39-2.98,0-6.33,1.47-10.05,4.41v18.13h4.46v5.97h-15.66v-5.97h4.59v-22.11h-4.59v-6h11.2v4.12c4.17-3.05,8.09-4.57,11.77-4.57,3.05,0,5.3.94,6.76,2.82,1.46,1.88,2.19,4.81,2.19,8.79Z" style="stroke-width: 0px;"/>
    <path d="M276.62,68.51c-1.93.93-4.01,1.39-6.26,1.39-3.07,0-5.66-.95-7.78-2.84-2.12-1.89-3.39-4.47-3.8-7.73h28.57c-.13-4.02-.96-7.51-2.5-10.46-1.53-2.95-3.63-5.22-6.3-6.81s-5.8-2.38-9.39-2.38c-3.29,0-6.29.77-9.01,2.32-2.73,1.54-4.87,3.69-6.44,6.43-1.57,2.75-2.35,5.83-2.35,9.25s.79,6.52,2.38,9.27c1.59,2.74,3.81,4.88,6.66,6.42,2.86,1.53,6.12,2.3,9.8,2.3s6.82-.74,9.84-2.22c3.01-1.48,5.45-3.67,7.31-6.57l-5.9-2.65c-1.3,1.92-2.91,3.35-4.83,4.28ZM262.64,47.8c1.9-1.69,4.12-2.54,6.65-2.54,2.66,0,5,.85,7.04,2.54,2.03,1.7,3.36,3.94,3.98,6.73h-21.33c.54-2.79,1.76-5.03,3.66-6.73Z" style="stroke-width: 0px;"/>
    <path d="M304.79,60.98v7.72h6.01v5.97h-18.09v-5.97h5.43v-22.11h-5.43v-6h10.75v7.72c1.36-3.05,3.05-5.17,5.07-6.37,2.02-1.2,4.91-1.8,8.67-1.8h1.52v6.78h-1.46c-3.63,0-6.33.48-8.11,1.43-1.77.95-2.95,2.39-3.52,4.31-.57,1.92-.86,4.7-.86,8.33Z" style="stroke-width: 0px;"/>
    <path d="M350.14,40.59v4.93c-1.86-1.82-3.77-3.17-5.72-4.06-1.96-.88-4.06-1.33-6.31-1.33-3.13,0-5.99.83-8.56,2.47-2.57,1.64-4.6,3.85-6.08,6.61-1.48,2.77-2.22,5.76-2.22,8.98s.71,6.06,2.12,8.71c1.42,2.65,3.39,4.77,5.9,6.37,2.52,1.6,5.36,2.4,8.52,2.4,2.24,0,4.5-.5,6.76-1.49,2.25-.99,4.12-2.36,5.59-4.09v3.18c0,3.46-.95,6.24-2.85,8.33-1.91,2.1-4.54,3.15-7.92,3.15-1.85,0-3.57-.29-5.13-.86-1.57-.57-3.13-1.43-4.69-2.58l-4.31,4.83c3.85,3.07,8.49,4.61,13.94,4.61,5.75,0,10.12-1.62,13.12-4.85,2.99-3.23,4.49-7.82,4.49-13.76v-25.55h4.75v-6h-11.4ZM348.78,63.8c-.95,1.8-2.28,3.22-3.99,4.28s-3.62,1.59-5.74,1.59-3.96-.52-5.59-1.55c-1.64-1.04-2.89-2.45-3.78-4.22-.89-1.77-1.33-3.72-1.33-5.84s.47-4,1.39-5.8c.93-1.79,2.23-3.22,3.9-4.28,1.66-1.06,3.51-1.59,5.54-1.59s3.96.55,5.64,1.66c1.69,1.1,3.01,2.55,3.96,4.34.95,1.8,1.42,3.66,1.42,5.61,0,2.08-.47,4.01-1.42,5.8Z" style="stroke-width: 0px;"/>
    <path d="M399,48.69c-1.56-2.74-3.7-4.93-6.42-6.56-2.72-1.63-5.76-2.45-9.11-2.45s-6.55.77-9.27,2.32c-2.73,1.54-4.85,3.68-6.37,6.4-1.53,2.73-2.29,5.82-2.29,9.28s.76,6.33,2.29,9.07c1.52,2.75,3.65,4.92,6.4,6.52,2.74,1.6,5.82,2.4,9.24,2.4s6.32-.8,9.05-2.4c2.72-1.6,4.87-3.77,6.45-6.52,1.58-2.74,2.37-5.77,2.37-9.07s-.78-6.24-2.34-8.99ZM392.84,63.41c-.93,1.76-2.23,3.15-3.89,4.19-1.67,1.03-3.49,1.55-5.48,1.55s-3.83-.52-5.51-1.55c-1.69-1.04-3.01-2.44-3.96-4.22-.95-1.77-1.42-3.67-1.42-5.7s.47-3.94,1.42-5.71c.95-1.77,2.26-3.18,3.93-4.23,1.66-1.05,3.49-1.57,5.47-1.57s3.88.53,5.55,1.6c1.66,1.07,2.96,2.48,3.89,4.23s1.39,3.64,1.39,5.68-.46,3.98-1.39,5.73Z" style="stroke-width: 0px;"/>
    <path d="M174.28,95.44v24.9c0,4.39.84,7.6,2.51,9.63,1.67,2.03,4.13,3.05,7.38,3.05s5.79-1.01,7.51-3.02c1.72-2.01,2.58-5.21,2.58-9.6v-24.97h-4.29v-6.1h16.31v6.1h-4.68v25.65c0,5.84-1.48,10.28-4.43,13.34-2.95,3.06-7.28,4.59-12.99,4.59s-10.07-1.52-12.95-4.56c-2.89-3.04-4.33-7.64-4.33-13.8v-25.23h-4.62v-6.1h16.37v6.1h-4.36Z" style="stroke-width: 0px;"/>
    <path d="M243.31,115.28v16.96h4.29v5.97h-11.01v-22.5c0-2.14-.31-3.67-.92-4.6-.62-.93-1.63-1.39-3.03-1.39-2.98,0-6.33,1.47-10.05,4.41v18.13h4.46v5.97h-15.66v-5.97h4.59v-22.11h-4.59v-6h11.2v4.12c4.17-3.05,8.09-4.57,11.77-4.57,3.05,0,5.3.94,6.76,2.82,1.46,1.88,2.19,4.81,2.19,8.79Z" style="stroke-width: 0px;"/>
    <polygon points="283.77 110.13 291.13 129.45 298.46 110.13 295.14 110.13 295.14 104.13 308.66 104.13 308.66 110.13 304.88 110.13 294.02 138.79 287.96 138.79 276.87 110.13 272.25 110.13 272.25 104.13 286.8 104.13 286.8 110.13 283.77 110.13" style="stroke-width: 0px;"/>
    <path d="M336.76,132.05c-1.92.93-4.01,1.39-6.25,1.39-3.07,0-5.67-.94-7.79-2.83-2.11-1.89-3.38-4.47-3.79-7.74h28.57c-.13-4.02-.97-7.5-2.5-10.45-1.54-2.95-3.64-5.22-6.31-6.81-2.67-1.59-5.8-2.39-9.38-2.39-3.29,0-6.29.78-9.02,2.32-2.72,1.55-4.87,3.69-6.43,6.44-1.57,2.74-2.35,5.83-2.35,9.24s.79,6.53,2.38,9.27c1.59,2.75,3.81,4.89,6.66,6.42,2.86,1.54,6.12,2.31,9.79,2.31s6.83-.74,9.84-2.23c3.02-1.48,5.46-3.66,7.32-6.56l-5.9-2.66c-1.3,1.92-2.91,3.35-4.84,4.28ZM322.79,111.35c1.9-1.7,4.12-2.55,6.65-2.55,2.66,0,5,.85,7.03,2.55,2.03,1.69,3.36,3.94,3.99,6.73h-21.33c.54-2.79,1.76-5.04,3.66-6.73Z" style="stroke-width: 0px;"/>
    <path d="M365.64,124.53v7.72h6.01v5.97h-18.09v-5.97h5.43v-22.11h-5.43v-6h10.75v7.72c1.36-3.05,3.05-5.17,5.07-6.37,2.02-1.2,4.91-1.8,8.67-1.8h1.52v6.78h-1.46c-3.63,0-6.33.48-8.11,1.43-1.77.95-2.95,2.39-3.52,4.31-.57,1.92-.86,4.7-.86,8.33Z" style="stroke-width: 0px;"/>
    <path d="M405.5,105.59v-1.46h5.84v11.32h-5.84v-2.08c-1.95-2.79-4.6-4.18-7.98-4.18-1.77,0-3.22.39-4.34,1.17-1.12.78-1.69,1.78-1.69,3.02,0,1.1.43,1.97,1.28,2.59.85.63,2.77,1.18,5.76,1.65l4.51.88c6.72,1.23,10.08,4.53,10.08,9.89,0,3.13-1.22,5.65-3.65,7.55-2.43,1.9-5.66,2.85-9.68,2.85-1.6,0-3.17-.23-4.72-.7-1.55-.46-2.84-1.04-3.87-1.73v1.85h-5.97v-11.67h5.97v1.17c.32,1.64,1.24,2.96,2.74,3.96s3.25,1.49,5.24,1.49c2.18,0,3.9-.38,5.16-1.15,1.25-.77,1.88-1.91,1.88-3.42,0-1.1-.5-1.93-1.49-2.48-.99-.55-2.99-1.12-6-1.7l-3.47-.75c-3.44-.69-5.96-1.88-7.55-3.57-1.6-1.69-2.4-3.84-2.4-6.45,0-2.12.59-3.93,1.77-5.43,1.18-1.5,2.69-2.63,4.52-3.39,1.84-.76,3.73-1.13,5.67-1.13,3.26,0,6.01.64,8.24,1.91Z" style="stroke-width: 0px;"/>
    <polygon points="436.6 132.24 436.6 138.21 419.38 138.21 419.38 132.24 424.7 132.24 424.7 110.13 419.38 110.13 419.38 104.13 431.41 104.13 431.41 132.24 436.6 132.24" style="stroke-width: 0px;"/>
    <path d="M431.8,92.65c0,1.1-.4,2.05-1.2,2.85-.8.8-1.75,1.2-2.85,1.2s-2.04-.4-2.82-1.2c-.78-.8-1.17-1.75-1.17-2.85s.39-2.05,1.17-2.85c.78-.8,1.72-1.2,2.82-1.2s2.11.39,2.89,1.17c.78.78,1.17,1.74,1.17,2.89Z" style="stroke-width: 0px;"/>
    <polygon points="269.97 132.24 269.97 138.21 252.75 138.21 252.75 132.24 258.07 132.24 258.07 110.13 252.75 110.13 252.75 104.13 264.78 104.13 264.78 132.24 269.97 132.24" style="stroke-width: 0px;"/>
    <path d="M265.17,92.65c0,1.1-.4,2.05-1.2,2.85-.8.8-1.75,1.2-2.85,1.2s-2.04-.4-2.82-1.2c-.78-.8-1.17-1.75-1.17-2.85s.39-2.05,1.17-2.85c.78-.8,1.72-1.2,2.82-1.2s2.11.39,2.89,1.17c.78.78,1.17,1.74,1.17,2.89Z" style="stroke-width: 0px;"/>
    <path d="M458.3,104.13v6h-6.23v17.87c0,1.86.2,3.06.6,3.62.4.55,1.09.83,2.06.83,1.19,0,2.38-.21,3.57-.62v6.06c-2.08.61-3.75.91-5.03.91-2.81,0-4.83-.71-6.06-2.12-1.23-1.42-1.85-3.84-1.85-7.28v-19.26h-4.44v-6h4.44v-5.16l6.71-6.13v11.28h6.23Z" style="stroke-width: 0px;"/>
    <polygon points="475.12 110.13 482.51 129.39 489.67 110.13 485.13 110.13 485.13 104.13 500 104.13 500 110.13 496.39 110.13 479.56 153.48 468.21 153.48 468.21 147.64 474.92 147.64 478.97 137.62 467.82 110.13 463.53 110.13 463.53 104.13 479.17 104.13 479.17 110.13 475.12 110.13" style="stroke-width: 0px;"/>
    <path d="M0,152.49c.63-.04,93.15-50.09,93.15-50.09l-27.29-57.63,5.05-11.77,49.42,105.91,21.35,12.65-22.91-49.22h22.29l-8.38-13.22-20.07-.03L71.84,0l-37.48,80.46h14.62l9.63-20.05,13.68,28.75-66.03.05L.05,102.09h65.59s-36.41,19.64-36.41,19.64l5.87-12.47-14.42-.14L0,152.49Z" style="stroke-width: 0px;"/>
  </g>
  <g>
    <path d="M167.42,169.54v-9.91h1.32v1.56l-.08.79h.04c.25-.6.72-1.19,1.41-1.74s1.55-.84,2.59-.84c1.2,0,2.05.32,2.56.97.51.64.77,1.6.77,2.88v6.31h-1.34v-5.95c0-.93-.15-1.66-.43-2.17-.29-.51-.87-.77-1.73-.77-1.06,0-1.96.39-2.68,1.16s-1.08,1.73-1.08,2.88v4.85h-1.34Z" style="stroke-width: 0px;"/>
    <path d="M178.26,166.88c0-2.3,2.01-3.45,6.03-3.45h.59v-.28c0-1.71-.81-2.56-2.44-2.56-1.01,0-1.95.32-2.82.95l-.61-1.02c.39-.34.91-.61,1.56-.82.64-.2,1.29-.31,1.95-.31,1.2,0,2.11.33,2.75.98.64.65.96,1.59.96,2.83v6.35h-1.28v-1.16l.06-.83h-.04c-.28.63-.71,1.16-1.31,1.59-.6.43-1.28.64-2.04.64-.91,0-1.69-.26-2.35-.77-.66-.51-1-1.22-1-2.13ZM179.62,166.76c0,.5.2.94.59,1.32.39.38.94.57,1.64.57.91,0,1.64-.38,2.2-1.14.56-.76.84-1.62.84-2.56v-.45h-.57c-.42,0-.79,0-1.09.02-.31.01-.71.06-1.2.15-.49.09-.9.2-1.21.34-.31.14-.59.37-.83.67-.24.3-.35.66-.35,1.08Z" style="stroke-width: 0px;"/>
    <path d="M189.32,169.54v-9.91h1.32v1.56l-.08.79h.04c.25-.68.73-1.28,1.44-1.8.71-.52,1.44-.78,2.21-.78,1.75,0,2.77.83,3.06,2.48h.04c.29-.67.77-1.25,1.45-1.74.68-.49,1.41-.74,2.2-.74,1.17,0,2.01.32,2.52.97.51.64.77,1.6.77,2.88v6.31h-1.34v-5.97c0-.93-.15-1.66-.44-2.17-.3-.51-.86-.77-1.69-.77-.96,0-1.75.42-2.38,1.25-.63.83-.95,1.79-.95,2.87v4.79h-1.34v-5.97c0-.92-.14-1.64-.41-2.16-.28-.52-.83-.78-1.68-.78-.97,0-1.78.42-2.42,1.27-.64.85-.97,1.8-.97,2.85v4.79h-1.34Z" style="stroke-width: 0px;"/>
    <path d="M206.7,164.59c0-1.58.47-2.84,1.41-3.78.94-.95,2.11-1.42,3.5-1.42,1.31,0,2.33.44,3.05,1.31.72.87,1.08,1.96,1.08,3.26,0,.16-.01.38-.04.67h-7.61c.03,1.22.41,2.18,1.14,2.88.74.7,1.64,1.04,2.7,1.04,1.14,0,2.15-.39,3.02-1.18l.61,1.02c-.46.42-1.02.76-1.69,1.01-.66.25-1.32.37-1.98.37-1.48,0-2.72-.49-3.71-1.46-.99-.97-1.49-2.21-1.49-3.73ZM208.16,163.57h6.23c-.04-.99-.32-1.74-.85-2.28s-1.18-.8-1.97-.8c-.85,0-1.6.27-2.23.81-.63.54-1.02,1.29-1.18,2.27Z" style="stroke-width: 0px;"/>
    <path d="M218.81,168.34c-.78-.96-1.17-2.21-1.17-3.76s.41-2.8,1.24-3.75c.83-.95,1.91-1.43,3.23-1.43.7,0,1.34.17,1.92.52.58.35,1.03.83,1.33,1.43h.04c-.04-.22-.06-.47-.06-.75v-4.91h1.34v13.86h-1.3v-1.12l.06-.71h-.04c-.3.6-.75,1.1-1.34,1.49-.59.39-1.29.58-2.11.58-1.31,0-2.36-.48-3.14-1.44ZM219.02,164.57c0,1.21.29,2.18.88,2.91.58.73,1.34,1.09,2.28,1.09s1.67-.33,2.28-1c.61-.67.92-1.68.92-3.02,0-1.08-.27-2-.82-2.78-.55-.77-1.32-1.16-2.32-1.16-.91,0-1.67.35-2.29,1.06-.62.71-.93,1.68-.93,2.9Z" style="stroke-width: 0px;"/>
    <path d="M233.94,166.88c0-2.3,2.01-3.45,6.03-3.45h.59v-.28c0-1.71-.82-2.56-2.44-2.56-1.01,0-1.95.32-2.82.95l-.61-1.02c.39-.34.91-.61,1.56-.82.64-.2,1.29-.31,1.95-.31,1.2,0,2.11.33,2.75.98.64.65.96,1.59.96,2.83v6.35h-1.28v-1.16l.06-.83h-.04c-.28.63-.71,1.16-1.31,1.59-.6.43-1.28.64-2.04.64-.91,0-1.69-.26-2.36-.77-.66-.51-1-1.22-1-2.13ZM235.3,166.76c0,.5.2.94.59,1.32.39.38.94.57,1.64.57.91,0,1.64-.38,2.2-1.14.56-.76.84-1.62.84-2.56v-.45h-.57c-.42,0-.79,0-1.09.02-.31.01-.71.06-1.2.15-.49.09-.9.2-1.21.34s-.59.37-.83.67c-.24.3-.36.66-.36,1.08Z" style="stroke-width: 0px;"/>
    <path d="M245.37,169.54v-8.71h-1.24v-1.12h1.24v-.45c0-.76.12-1.41.37-1.93.24-.53.56-.9.96-1.13.39-.23.76-.39,1.09-.47.34-.08.67-.13,1.02-.13.21,0,.41.02.61.06v1.18c-.1-.03-.26-.04-.47-.04-.24,0-.46.03-.68.09-.22.06-.45.17-.7.32-.25.15-.45.41-.6.77-.15.36-.23.8-.23,1.31v.43h2.52v1.12h-2.52v8.71h-1.36Z" style="stroke-width: 0px;"/>
    <path d="M251.7,165.93v-5.1h-1.3v-1.12h1.32v-2.82h1.32v2.82h2.5v1.12h-2.5v4.97c0,.54.08,1,.24,1.37.16.38.36.64.61.81.25.16.49.28.71.34.22.07.45.1.69.1.18,0,.33-.01.45-.04v1.2c-.16.03-.35.04-.57.04-.28,0-.54-.02-.81-.06-.26-.04-.56-.13-.9-.29-.33-.15-.63-.35-.88-.6-.25-.25-.46-.61-.63-1.08s-.26-1.02-.26-1.66Z" style="stroke-width: 0px;"/>
    <path d="M256.98,164.59c0-1.58.47-2.84,1.41-3.78.94-.95,2.11-1.42,3.5-1.42,1.31,0,2.33.44,3.05,1.31.72.87,1.08,1.96,1.08,3.26,0,.16-.01.38-.04.67h-7.61c.03,1.22.41,2.18,1.14,2.88.74.7,1.64,1.04,2.7,1.04,1.14,0,2.15-.39,3.02-1.18l.61,1.02c-.46.42-1.02.76-1.68,1.01-.66.25-1.32.37-1.98.37-1.49,0-2.72-.49-3.72-1.46s-1.49-2.21-1.49-3.73ZM258.44,163.57h6.23c-.04-.99-.32-1.74-.85-2.28-.53-.53-1.18-.8-1.97-.8-.85,0-1.6.27-2.23.81s-1.03,1.29-1.18,2.27Z" style="stroke-width: 0px;"/>
    <path d="M268.55,169.54v-9.91h1.32v1.83l-.08.79h.04c.26-.79.67-1.44,1.23-1.95.56-.51,1.21-.77,1.94-.77.2,0,.37.02.53.06v1.32c-.08-.03-.24-.04-.49-.04-.7,0-1.29.24-1.79.73-.5.49-.85,1.05-1.05,1.7-.2.65-.31,1.33-.31,2.04v4.2h-1.34Z" style="stroke-width: 0px;"/>
    <path d="M279.57,162.6c0-2.01.67-3.71,2.01-5.08,1.34-1.38,3-2.07,4.99-2.07s3.6.54,4.93,1.62l-.75,1.04c-.49-.41-1.11-.74-1.87-1-.76-.26-1.51-.38-2.25-.38-1.66,0-3.01.56-4.06,1.67-1.05,1.12-1.58,2.51-1.58,4.18s.52,3.12,1.57,4.24c1.04,1.12,2.36,1.67,3.95,1.67.81,0,1.61-.18,2.38-.54.77-.36,1.43-.85,1.98-1.47v-2.35h-2.37v-1.22h3.65v6.62h-1.24v-1.04l.02-.59h-.04c-.51.57-1.17,1.02-1.97,1.36-.8.34-1.65.51-2.54.51-1.92,0-3.53-.68-4.84-2.05-1.31-1.37-1.96-3.07-1.96-5.12Z" style="stroke-width: 0px;"/>
    <path d="M294.9,165.93v-6.31h1.36v5.95c0,.93.14,1.66.42,2.17.28.51.86.77,1.72.77,1.09,0,1.97-.41,2.65-1.22.68-.81,1.02-1.79,1.02-2.92v-4.75h1.34v9.91h-1.32v-1.56l.08-.79h-.04c-.24.62-.7,1.2-1.39,1.75-.69.55-1.53.83-2.51.83-1.16,0-2-.32-2.53-.95-.53-.63-.8-1.6-.8-2.9Z" style="stroke-width: 0px;"/>
    <path d="M306.61,169.54v-9.91h1.32v1.56l-.08.79h.04c.25-.68.73-1.28,1.44-1.8.71-.52,1.45-.78,2.21-.78,1.75,0,2.77.83,3.05,2.48h.04c.29-.67.77-1.25,1.45-1.74.68-.49,1.41-.74,2.2-.74,1.17,0,2.01.32,2.52.97.51.64.77,1.6.77,2.88v6.31h-1.34v-5.97c0-.93-.15-1.66-.44-2.17-.29-.51-.86-.77-1.68-.77-.96,0-1.75.42-2.38,1.25-.63.83-.95,1.79-.95,2.87v4.79h-1.34v-5.97c0-.92-.14-1.64-.41-2.16-.28-.52-.83-.78-1.68-.78-.97,0-1.78.42-2.42,1.27-.64.85-.97,1.8-.97,2.85v4.79h-1.34Z" style="stroke-width: 0px;"/>
    <path d="M323.79,166.88c0-2.3,2.01-3.45,6.03-3.45h.59v-.28c0-1.71-.82-2.56-2.44-2.56-1.01,0-1.95.32-2.82.95l-.61-1.02c.39-.34.91-.61,1.56-.82.64-.2,1.29-.31,1.95-.31,1.2,0,2.11.33,2.75.98.64.65.96,1.59.96,2.83v6.35h-1.28v-1.16l.06-.83h-.04c-.28.63-.71,1.16-1.31,1.59-.6.43-1.28.64-2.04.64-.91,0-1.69-.26-2.36-.77-.66-.51-1-1.22-1-2.13ZM325.15,166.76c0,.5.2.94.59,1.32.39.38.94.57,1.64.57.91,0,1.64-.38,2.2-1.14.56-.76.84-1.62.84-2.56v-.45h-.57c-.42,0-.79,0-1.09.02-.31.01-.71.06-1.2.15-.49.09-.9.2-1.21.34s-.59.37-.83.67c-.24.3-.36.66-.36,1.08Z" style="stroke-width: 0px;"/>
    <path d="M334.85,169.54v-9.91h1.32v1.83l-.08.79h.04c.26-.79.67-1.44,1.23-1.95.56-.51,1.21-.77,1.94-.77.2,0,.37.02.53.06v1.32c-.08-.03-.24-.04-.49-.04-.7,0-1.29.24-1.79.73-.5.49-.85,1.05-1.05,1.7-.2.65-.31,1.33-.31,2.04v4.2h-1.34Z" style="stroke-width: 0px;"/>
    <path d="M341.88,169.54v-13.86h1.34v4.89l-.06.83h.04c.3-.62.75-1.11,1.36-1.47.6-.36,1.28-.54,2.03-.54,1.33,0,2.38.48,3.15,1.43.78.95,1.16,2.2,1.16,3.75s-.41,2.82-1.24,3.77c-.83.95-1.91,1.43-3.23,1.43-.7,0-1.34-.18-1.93-.55-.59-.37-1.04-.86-1.36-1.48h-.04c.04.22.06.49.06.81v.99h-1.28ZM343.19,164.61c0,1.08.28,2.01.83,2.79.55.78,1.33,1.17,2.33,1.17.91,0,1.67-.36,2.29-1.07.62-.72.93-1.68.93-2.91s-.29-2.16-.88-2.89c-.58-.73-1.34-1.09-2.28-1.09s-1.67.33-2.29,1c-.62.67-.93,1.67-.93,3Z" style="stroke-width: 0px;"/>
    <path d="M352.82,164.59c0-1.58.47-2.84,1.41-3.78.94-.95,2.11-1.42,3.5-1.42,1.31,0,2.33.44,3.05,1.31.72.87,1.08,1.96,1.08,3.26,0,.16-.01.38-.04.67h-7.61c.03,1.22.41,2.18,1.14,2.88.74.7,1.64,1.04,2.7,1.04,1.14,0,2.15-.39,3.02-1.18l.61,1.02c-.46.42-1.02.76-1.68,1.01-.66.25-1.32.37-1.98.37-1.49,0-2.72-.49-3.72-1.46s-1.49-2.21-1.49-3.73ZM354.28,163.57h6.23c-.04-.99-.32-1.74-.85-2.28-.53-.53-1.18-.8-1.97-.8-.85,0-1.6.27-2.23.81s-1.03,1.29-1.18,2.27Z" style="stroke-width: 0px;"/>
    <path d="M364.39,169.54v-13.86h1.34v7.73h1.6l2.96-3.78h1.62l-3.45,4.32v.04l3.8,5.56h-1.62l-3.29-4.95h-1.62v4.95h-1.34Z" style="stroke-width: 0px;"/>
    <path d="M379.49,169.54v-13.86h4.45c2.12,0,3.8.61,5.07,1.84,1.26,1.23,1.89,2.92,1.89,5.08s-.63,3.87-1.89,5.09c-1.26,1.23-2.95,1.84-5.07,1.84h-4.45ZM380.85,168.32h2.96c1.73,0,3.11-.5,4.14-1.49,1.03-.99,1.54-2.4,1.54-4.23s-.51-3.22-1.54-4.21c-1.02-.99-2.4-1.49-4.14-1.49h-2.96v11.41Z" style="stroke-width: 0px;"/>
    <path d="M392.63,166.88c0-2.3,2.01-3.45,6.03-3.45h.59v-.28c0-1.71-.82-2.56-2.44-2.56-1.01,0-1.95.32-2.82.95l-.61-1.02c.39-.34.91-.61,1.56-.82.64-.2,1.29-.31,1.95-.31,1.2,0,2.11.33,2.75.98.64.65.96,1.59.96,2.83v6.35h-1.28v-1.16l.06-.83h-.04c-.28.63-.71,1.16-1.31,1.59-.6.43-1.28.64-2.04.64-.91,0-1.69-.26-2.36-.77-.66-.51-1-1.22-1-2.13ZM393.99,166.76c0,.5.2.94.59,1.32.39.38.94.57,1.64.57.91,0,1.64-.38,2.2-1.14.56-.76.84-1.62.84-2.56v-.45h-.57c-.42,0-.79,0-1.09.02-.31.01-.71.06-1.2.15-.49.09-.9.2-1.21.34s-.59.37-.83.67c-.24.3-.36.66-.36,1.08Z" style="stroke-width: 0px;"/>
    <path d="M403.57,165.93v-6.31h1.36v5.95c0,.93.14,1.66.42,2.17.28.51.86.77,1.72.77,1.09,0,1.97-.41,2.65-1.22.68-.81,1.02-1.79,1.02-2.92v-4.75h1.34v9.91h-1.32v-1.56l.08-.79h-.04c-.24.62-.7,1.2-1.39,1.75-.69.55-1.53.83-2.51.83-1.16,0-2-.32-2.53-.95-.53-.63-.8-1.6-.8-2.9Z" style="stroke-width: 0px;"/>
    <path d="M415.28,169.54v-13.86h1.34v7.73h1.6l2.96-3.78h1.62l-3.45,4.32v.04l3.8,5.56h-1.62l-3.29-4.95h-1.62v4.95h-1.34Z" style="stroke-width: 0px;"/>
    <path d="M423.99,164.59c0-1.58.47-2.84,1.41-3.78.94-.95,2.11-1.42,3.5-1.42,1.31,0,2.33.44,3.05,1.31.72.87,1.08,1.96,1.08,3.26,0,.16-.01.38-.04.67h-7.61c.03,1.22.41,2.18,1.14,2.88.74.7,1.64,1.04,2.7,1.04,1.14,0,2.15-.39,3.02-1.18l.61,1.02c-.46.42-1.02.76-1.68,1.01-.66.25-1.32.37-1.98.37-1.49,0-2.72-.49-3.72-1.46s-1.49-2.21-1.49-3.73ZM425.45,163.57h6.23c-.04-.99-.32-1.74-.85-2.28-.53-.53-1.18-.8-1.97-.8-.85,0-1.6.27-2.23.81s-1.03,1.29-1.18,2.27Z" style="stroke-width: 0px;"/>
    <path d="M434.59,172.02c.37.3.76.45,1.18.45.79,0,1.42-.54,1.89-1.62l.59-1.42-4.12-9.81h1.48l2.9,7.23.38,1.04h.04c.09-.37.2-.72.33-1.04l2.86-7.23h1.44l-4.89,11.98c-.26.64-.64,1.15-1.13,1.52-.49.37-1.06.55-1.7.55-.3,0-.6-.05-.9-.15-.29-.1-.51-.19-.64-.29l-.22-.16.51-1.06Z" style="stroke-width: 0px;"/>
    <path d="M444.67,164.59c0-1.58.47-2.84,1.41-3.78.94-.95,2.11-1.42,3.5-1.42,1.31,0,2.33.44,3.05,1.31.72.87,1.08,1.96,1.08,3.26,0,.16-.01.38-.04.67h-7.61c.03,1.22.41,2.18,1.14,2.88.74.7,1.64,1.04,2.7,1.04,1.14,0,2.15-.39,3.02-1.18l.61,1.02c-.46.42-1.02.76-1.68,1.01-.66.25-1.32.37-1.98.37-1.49,0-2.72-.49-3.72-1.46s-1.49-2.21-1.49-3.73ZM446.12,163.57h6.23c-.04-.99-.32-1.74-.85-2.28-.53-.53-1.18-.8-1.97-.8-.85,0-1.6.27-2.23.81s-1.03,1.29-1.18,2.27Z" style="stroke-width: 0px;"/>
    <path d="M458.74,169.54l-3.82-9.91h1.44l2.74,7.27.33,1.2h.04c.12-.47.24-.87.35-1.2l2.74-7.27h1.42l-3.78,9.91h-1.46Z" style="stroke-width: 0px;"/>
  </g>
</svg>