<?xml version="1.0" encoding="UTF-8"?>
<svg id="_Слой_1" data-name="Слой 1" xmlns="http://www.w3.org/2000/svg" xmlns:xlink="http://www.w3.org/1999/xlink" viewBox="0 0 500 174.37">
  <defs>
    <linearGradient id="_Безымянный_градиент_23" data-name="Безымянный градиент 23" x1="96.77" y1="-24.92" x2="377.36" y2="255.67" gradientUnits="userSpaceOnUse">
      <stop offset=".03" stop-color="#4a2b57"/>
      <stop offset=".05" stop-color="#4d385e"/>
      <stop offset=".1" stop-color="#565c71"/>
      <stop offset=".16" stop-color="#659591"/>
      <stop offset=".24" stop-color="#79dfba"/>
      <stop offset=".36" stop-color="#7adfb9"/>
      <stop offset=".4" stop-color="#81e2b8"/>
      <stop offset=".43" stop-color="#8de6b5"/>
      <stop offset=".45" stop-color="#99ebb3"/>
      <stop offset=".56" stop-color="#69a693"/>
      <stop offset=".69" stop-color="#32576f"/>
      <stop offset=".76" stop-color="#1d3861"/>
      <stop offset=".91" stop-color="#402e59"/>
      <stop offset="1" stop-color="#4f2a56"/>
    </linearGradient>
  </defs>
  <path d="M195,37.21v-5.32h-20.91v14.56h18.19v6.1h-18.19v16.02h20.91v-6.09h6.03v12.19h-39.22v-6.1h4.88V31.9h-4.88v-6.1h39.22v11.41h-6.03ZM241.9,51.74v16.96h4.29v5.97h-11.01v-22.5c0-2.14-.31-3.67-.92-4.6-.62-.93-1.63-1.39-3.03-1.39-2.98,0-6.33,1.47-10.05,4.41v18.13h4.46v5.97h-15.66v-5.97h4.59v-22.11h-4.59v-6h11.2v4.12c4.17-3.05,8.09-4.57,11.77-4.57,3.05,0,5.3.94,6.76,2.82,1.46,1.88,2.19,4.81,2.19,8.79ZM287.35,59.33h-28.57c.41,3.26,1.67,5.84,3.79,7.73,2.12,1.89,4.71,2.84,7.78,2.84,2.25,0,4.33-.46,6.26-1.39,1.92-.93,3.53-2.36,4.83-4.28l5.9,2.66c-1.86,2.9-4.3,5.09-7.31,6.57-3.02,1.48-6.3,2.22-9.84,2.22s-6.94-.77-9.79-2.3c-2.85-1.53-5.07-3.67-6.66-6.42-1.59-2.74-2.38-5.84-2.38-9.27s.78-6.5,2.35-9.24c1.57-2.74,3.71-4.89,6.44-6.44,2.72-1.55,5.73-2.32,9.01-2.32,3.59,0,6.72.79,9.39,2.38,2.67,1.59,4.77,3.86,6.31,6.81,1.53,2.95,2.37,6.44,2.5,10.46ZM269.29,45.25c-2.53,0-4.74.85-6.65,2.55-1.9,1.7-3.12,3.94-3.66,6.73h21.34c-.63-2.79-1.96-5.03-3.99-6.73-2.03-1.7-4.38-2.55-7.04-2.55ZM304.79,60.98v7.72h6.01v5.97h-18.09v-5.97h5.43v-22.11h-5.43v-6h10.75v7.72c1.36-3.05,3.05-5.17,5.07-6.37,2.02-1.2,4.91-1.8,8.67-1.8h1.52v6.78h-1.46c-3.63,0-6.33.48-8.11,1.43-1.77.95-2.95,2.39-3.52,4.31-.57,1.92-.86,4.7-.86,8.33ZM350.14,45.51v-4.93h11.4v6h-4.75v25.55c0,5.94-1.5,10.53-4.49,13.76-2.99,3.23-7.37,4.85-13.12,4.85-5.45,0-10.1-1.53-13.94-4.6l4.31-4.83c1.56,1.15,3.12,2,4.69,2.58,1.57.57,3.28.86,5.14.86,3.37,0,6.01-1.05,7.91-3.15,1.9-2.1,2.85-4.87,2.85-8.33v-3.18c-1.47,1.73-3.33,3.09-5.59,4.09-2.26.99-4.51,1.49-6.76,1.49-3.16,0-5.99-.8-8.51-2.4-2.52-1.6-4.49-3.72-5.9-6.37-1.42-2.65-2.12-5.55-2.12-8.71s.74-6.21,2.22-8.98c1.48-2.77,3.51-4.97,6.08-6.61,2.57-1.64,5.43-2.46,8.56-2.46,2.25,0,4.35.44,6.31,1.33,1.96.89,3.86,2.24,5.72,4.05ZM339.05,69.67c2.12,0,4.03-.53,5.74-1.59,1.71-1.06,3.04-2.49,3.99-4.28.95-1.79,1.43-3.73,1.43-5.8,0-1.95-.48-3.82-1.43-5.61-.95-1.79-2.27-3.24-3.96-4.34-1.69-1.1-3.57-1.65-5.64-1.65s-3.88.53-5.54,1.59c-1.66,1.06-2.96,2.49-3.89,4.28-.93,1.79-1.39,3.73-1.39,5.8s.44,4.06,1.33,5.84c.89,1.77,2.15,3.18,3.78,4.22,1.63,1.04,3.5,1.56,5.59,1.56ZM401.34,57.67c0,3.31-.79,6.33-2.37,9.08-1.58,2.75-3.73,4.92-6.45,6.52-2.72,1.6-5.74,2.4-9.05,2.4s-6.5-.8-9.24-2.4c-2.75-1.6-4.88-3.77-6.4-6.52-1.52-2.74-2.29-5.77-2.29-9.08s.76-6.55,2.29-9.27c1.52-2.72,3.65-4.86,6.37-6.4,2.72-1.55,5.81-2.32,9.27-2.32s6.39.82,9.11,2.45c2.72,1.63,4.86,3.82,6.42,6.57,1.56,2.75,2.33,5.74,2.33,8.98ZM383.47,69.15c1.99,0,3.82-.52,5.48-1.56,1.66-1.04,2.96-2.43,3.89-4.18.93-1.75,1.39-3.66,1.39-5.74s-.47-3.92-1.39-5.67c-.93-1.75-2.23-3.16-3.89-4.23-1.66-1.07-3.51-1.6-5.54-1.6s-3.82.52-5.48,1.57c-1.66,1.05-2.97,2.46-3.92,4.23-.95,1.77-1.43,3.68-1.43,5.71s.48,3.93,1.43,5.71c.95,1.77,2.27,3.18,3.96,4.22,1.69,1.04,3.52,1.56,5.51,1.56ZM174.28,95.44v24.9c0,4.39.84,7.6,2.51,9.63,1.67,2.03,4.13,3.05,7.38,3.05s5.79-1.01,7.51-3.02c1.72-2.01,2.58-5.21,2.58-9.6v-24.97h-4.29v-6.1h16.31v6.1h-4.68v25.65c0,5.84-1.48,10.28-4.43,13.34-2.95,3.06-7.28,4.59-12.99,4.59s-10.07-1.52-12.95-4.56c-2.89-3.04-4.33-7.64-4.33-13.8v-25.23h-4.62v-6.1h16.37v6.1h-4.36ZM243.31,115.28v16.96h4.29v5.97h-11.01v-22.5c0-2.14-.31-3.67-.92-4.6-.62-.93-1.63-1.39-3.03-1.39-2.98,0-6.33,1.47-10.05,4.41v18.13h4.46v5.97h-15.66v-5.97h4.59v-22.11h-4.59v-6h11.2v4.12c4.17-3.05,8.09-4.57,11.77-4.57,3.05,0,5.3.94,6.76,2.82s2.19,4.81,2.19,8.79ZM283.77,110.13l7.36,19.32,7.33-19.32h-3.32v-6h13.52v6h-3.78l-10.86,28.66h-6.06l-11.09-28.66h-4.62v-6h14.56v6h-3.03ZM347.5,122.87h-28.57c.41,3.26,1.67,5.84,3.79,7.73,2.12,1.89,4.71,2.84,7.78,2.84,2.25,0,4.33-.46,6.26-1.39,1.92-.93,3.53-2.36,4.83-4.28l5.9,2.66c-1.86,2.9-4.3,5.09-7.31,6.57-3.02,1.48-6.3,2.22-9.84,2.22s-6.94-.77-9.79-2.3c-2.85-1.53-5.07-3.67-6.66-6.42-1.59-2.74-2.38-5.84-2.38-9.27s.78-6.5,2.35-9.24c1.57-2.74,3.71-4.89,6.44-6.44,2.72-1.55,5.73-2.32,9.01-2.32,3.59,0,6.72.79,9.39,2.38,2.67,1.59,4.77,3.86,6.31,6.81,1.53,2.95,2.37,6.44,2.5,10.46ZM329.44,108.8c-2.53,0-4.74.85-6.65,2.55-1.9,1.7-3.12,3.94-3.66,6.73h21.34c-.63-2.79-1.96-5.03-3.99-6.73-2.03-1.7-4.38-2.55-7.04-2.55ZM365.64,124.53v7.72h6.01v5.97h-18.09v-5.97h5.43v-22.11h-5.43v-6h10.75v7.72c1.36-3.05,3.05-5.17,5.07-6.37,2.02-1.2,4.91-1.8,8.67-1.8h1.52v6.78h-1.46c-3.63,0-6.33.48-8.11,1.43-1.77.95-2.95,2.39-3.52,4.31-.57,1.92-.86,4.7-.86,8.33ZM405.5,105.59v-1.46h5.84v11.32h-5.84v-2.08c-1.95-2.79-4.6-4.18-7.98-4.18-1.77,0-3.22.39-4.34,1.17-1.12.78-1.69,1.78-1.69,3.02,0,1.1.43,1.97,1.28,2.59.85.63,2.77,1.18,5.76,1.65l4.51.88c6.72,1.23,10.08,4.53,10.08,9.89,0,3.13-1.22,5.65-3.65,7.55-2.43,1.9-5.66,2.85-9.68,2.85-1.6,0-3.17-.23-4.72-.7-1.55-.46-2.84-1.04-3.87-1.73v1.85h-5.97v-11.67h5.97v1.17c.32,1.64,1.24,2.96,2.74,3.96,1.5.99,3.25,1.49,5.24,1.49,2.18,0,3.9-.38,5.16-1.15,1.25-.77,1.88-1.91,1.88-3.42,0-1.1-.5-1.93-1.49-2.48s-2.99-1.12-6-1.7l-3.47-.75c-3.44-.69-5.96-1.88-7.55-3.57-1.6-1.69-2.4-3.84-2.4-6.45,0-2.12.59-3.93,1.77-5.43,1.18-1.5,2.69-2.63,4.52-3.39,1.84-.76,3.73-1.13,5.67-1.13,3.26,0,6.01.64,8.24,1.91ZM436.6,132.24v5.97h-17.22v-5.97h5.32v-22.11h-5.32v-6h12.03v28.11h5.19ZM431.8,92.65c0,1.1-.4,2.05-1.2,2.85-.8.8-1.75,1.2-2.85,1.2s-2.04-.4-2.82-1.2c-.78-.8-1.17-1.75-1.17-2.85s.39-2.05,1.17-2.85c.78-.8,1.72-1.2,2.82-1.2s2.11.39,2.89,1.17c.78.78,1.17,1.74,1.17,2.89ZM269.97,132.24v5.97h-17.22v-5.97h5.32v-22.11h-5.32v-6h12.03v28.11h5.19ZM265.17,92.65c0,1.1-.4,2.05-1.2,2.85-.8.8-1.75,1.2-2.85,1.2s-2.04-.4-2.82-1.2c-.78-.8-1.17-1.75-1.17-2.85s.39-2.05,1.17-2.85c.78-.8,1.72-1.2,2.82-1.2s2.11.39,2.89,1.17c.78.78,1.17,1.74,1.17,2.89ZM458.3,104.13v6h-6.23v17.87c0,1.86.2,3.06.6,3.62.4.55,1.09.83,2.06.83,1.19,0,2.38-.21,3.57-.62v6.06c-2.08.61-3.75.91-5.03.91-2.81,0-4.83-.71-6.06-2.12-1.23-1.42-1.85-3.84-1.85-7.28v-19.26h-4.44v-6h4.44v-5.16l6.71-6.13v11.28h6.23ZM475.12,110.13l7.39,19.26,7.17-19.26h-4.54v-6h14.87v6h-3.61l-16.83,43.35h-11.35v-5.84h6.71l4.05-10.02-11.15-27.5h-4.29v-6h15.64v6h-4.05ZM0,152.49c.63-.04,93.15-50.09,93.15-50.09l-27.29-57.63,5.05-11.77,49.42,105.91,21.35,12.65-22.91-49.22h22.29l-8.38-13.22-20.07-.03L71.84,0l-37.48,80.46h14.62l9.63-20.05,13.68,28.75-66.03.05L.05,102.09h65.59s-36.41,19.64-36.41,19.64l5.87-12.47-14.42-.14" style="fill: url(#_Безымянный_градиент_23); stroke-width: 0px;"/>
  <g>
    <path d="M167.42,169.54v-9.91h1.32v1.56l-.08.79h.04c.25-.6.72-1.19,1.41-1.74s1.55-.84,2.59-.84c1.2,0,2.05.32,2.56.97.51.64.77,1.6.77,2.88v6.31h-1.34v-5.95c0-.93-.15-1.66-.43-2.17-.29-.51-.87-.77-1.73-.77-1.06,0-1.96.39-2.68,1.16s-1.08,1.73-1.08,2.88v4.85h-1.34Z" style="fill: #76e4b4; stroke-width: 0px;"/>
    <path d="M178.26,166.88c0-2.3,2.01-3.45,6.03-3.45h.59v-.28c0-1.71-.81-2.56-2.44-2.56-1.01,0-1.95.32-2.82.95l-.61-1.02c.39-.34.91-.61,1.56-.82.64-.2,1.29-.31,1.95-.31,1.2,0,2.11.33,2.75.98.64.65.96,1.59.96,2.83v6.35h-1.28v-1.16l.06-.83h-.04c-.28.63-.71,1.16-1.31,1.59-.6.43-1.28.64-2.04.64-.91,0-1.69-.26-2.35-.77-.66-.51-1-1.22-1-2.13ZM179.62,166.76c0,.5.2.94.59,1.32.39.38.94.57,1.64.57.91,0,1.64-.38,2.2-1.14.56-.76.84-1.62.84-2.56v-.45h-.57c-.42,0-.79,0-1.09.02-.31.01-.71.06-1.2.15-.49.09-.9.2-1.21.34-.31.14-.59.37-.83.67-.24.3-.35.66-.35,1.08Z" style="fill: #76e4b4; stroke-width: 0px;"/>
    <path d="M189.32,169.54v-9.91h1.32v1.56l-.08.79h.04c.25-.68.73-1.28,1.44-1.8.71-.52,1.44-.78,2.21-.78,1.75,0,2.77.83,3.06,2.48h.04c.29-.67.77-1.25,1.45-1.74.68-.49,1.41-.74,2.2-.74,1.17,0,2.01.32,2.52.97.51.64.77,1.6.77,2.88v6.31h-1.34v-5.97c0-.93-.15-1.66-.44-2.17-.3-.51-.86-.77-1.69-.77-.96,0-1.75.42-2.38,1.25-.63.83-.95,1.79-.95,2.87v4.79h-1.34v-5.97c0-.92-.14-1.64-.41-2.16-.28-.52-.83-.78-1.68-.78-.97,0-1.78.42-2.42,1.27-.64.85-.97,1.8-.97,2.85v4.79h-1.34Z" style="fill: #76e4b4; stroke-width: 0px;"/>
    <path d="M206.7,164.59c0-1.58.47-2.84,1.41-3.78.94-.95,2.11-1.42,3.5-1.42,1.31,0,2.33.44,3.05,1.31.72.87,1.08,1.96,1.08,3.26,0,.16-.01.38-.04.67h-7.61c.03,1.22.41,2.18,1.14,2.88.74.7,1.64,1.04,2.7,1.04,1.14,0,2.15-.39,3.02-1.18l.61,1.02c-.46.42-1.02.76-1.69,1.01-.66.25-1.32.37-1.98.37-1.48,0-2.72-.49-3.71-1.46-.99-.97-1.49-2.21-1.49-3.73ZM208.16,163.57h6.23c-.04-.99-.32-1.74-.85-2.28s-1.18-.8-1.97-.8c-.85,0-1.6.27-2.23.81-.63.54-1.02,1.29-1.18,2.27Z" style="fill: #76e4b4; stroke-width: 0px;"/>
    <path d="M218.81,168.34c-.78-.96-1.17-2.21-1.17-3.76s.41-2.8,1.24-3.75c.83-.95,1.91-1.43,3.23-1.43.7,0,1.34.17,1.92.52.58.35,1.03.83,1.33,1.43h.04c-.04-.22-.06-.47-.06-.75v-4.91h1.34v13.86h-1.3v-1.12l.06-.71h-.04c-.3.6-.75,1.1-1.34,1.49-.59.39-1.29.58-2.11.58-1.31,0-2.36-.48-3.14-1.44ZM219.02,164.57c0,1.21.29,2.18.88,2.91.58.73,1.34,1.09,2.28,1.09s1.67-.33,2.28-1c.61-.67.92-1.68.92-3.02,0-1.08-.27-2-.82-2.78-.55-.77-1.32-1.16-2.32-1.16-.91,0-1.67.35-2.29,1.06-.62.71-.93,1.68-.93,2.9Z" style="fill: #76e4b4; stroke-width: 0px;"/>
    <path d="M233.94,166.88c0-2.3,2.01-3.45,6.03-3.45h.59v-.28c0-1.71-.82-2.56-2.44-2.56-1.01,0-1.95.32-2.82.95l-.61-1.02c.39-.34.91-.61,1.56-.82.64-.2,1.29-.31,1.95-.31,1.2,0,2.11.33,2.75.98.64.65.96,1.59.96,2.83v6.35h-1.28v-1.16l.06-.83h-.04c-.28.63-.71,1.16-1.31,1.59-.6.43-1.28.64-2.04.64-.91,0-1.69-.26-2.36-.77-.66-.51-1-1.22-1-2.13ZM235.3,166.76c0,.5.2.94.59,1.32.39.38.94.57,1.64.57.91,0,1.64-.38,2.2-1.14.56-.76.84-1.62.84-2.56v-.45h-.57c-.42,0-.79,0-1.09.02-.31.01-.71.06-1.2.15-.49.09-.9.2-1.21.34s-.59.37-.83.67c-.24.3-.36.66-.36,1.08Z" style="fill: #76e4b4; stroke-width: 0px;"/>
    <path d="M245.37,169.54v-8.71h-1.24v-1.12h1.24v-.45c0-.76.12-1.41.37-1.93.24-.53.56-.9.96-1.13.39-.23.76-.39,1.09-.47.34-.08.67-.13,1.02-.13.21,0,.41.02.61.06v1.18c-.1-.03-.26-.04-.47-.04-.24,0-.46.03-.68.09-.22.06-.45.17-.7.32-.25.15-.45.41-.6.77-.15.36-.23.8-.23,1.31v.43h2.52v1.12h-2.52v8.71h-1.36Z" style="fill: #76e4b4; stroke-width: 0px;"/>
    <path d="M251.7,165.93v-5.1h-1.3v-1.12h1.32v-2.82h1.32v2.82h2.5v1.12h-2.5v4.97c0,.54.08,1,.24,1.37.16.38.36.64.61.81.25.16.49.28.71.34.22.07.45.1.69.1.18,0,.33-.01.45-.04v1.2c-.16.03-.35.04-.57.04-.28,0-.54-.02-.81-.06-.26-.04-.56-.13-.9-.29-.33-.15-.63-.35-.88-.6-.25-.25-.46-.61-.63-1.08s-.26-1.02-.26-1.66Z" style="fill: #76e4b4; stroke-width: 0px;"/>
    <path d="M256.98,164.59c0-1.58.47-2.84,1.41-3.78.94-.95,2.11-1.42,3.5-1.42,1.31,0,2.33.44,3.05,1.31.72.87,1.08,1.96,1.08,3.26,0,.16-.01.38-.04.67h-7.61c.03,1.22.41,2.18,1.14,2.88.74.7,1.64,1.04,2.7,1.04,1.14,0,2.15-.39,3.02-1.18l.61,1.02c-.46.42-1.02.76-1.68,1.01-.66.25-1.32.37-1.98.37-1.49,0-2.72-.49-3.72-1.46s-1.49-2.21-1.49-3.73ZM258.44,163.57h6.23c-.04-.99-.32-1.74-.85-2.28-.53-.53-1.18-.8-1.97-.8-.85,0-1.6.27-2.23.81s-1.03,1.29-1.18,2.27Z" style="fill: #76e4b4; stroke-width: 0px;"/>
    <path d="M268.55,169.54v-9.91h1.32v1.83l-.08.79h.04c.26-.79.67-1.44,1.23-1.95.56-.51,1.21-.77,1.94-.77.2,0,.37.02.53.06v1.32c-.08-.03-.24-.04-.49-.04-.7,0-1.29.24-1.79.73-.5.49-.85,1.05-1.05,1.7-.2.65-.31,1.33-.31,2.04v4.2h-1.34Z" style="fill: #76e4b4; stroke-width: 0px;"/>
    <path d="M279.57,162.6c0-2.01.67-3.71,2.01-5.08,1.34-1.38,3-2.07,4.99-2.07s3.6.54,4.93,1.62l-.75,1.04c-.49-.41-1.11-.74-1.87-1-.76-.26-1.51-.38-2.25-.38-1.66,0-3.01.56-4.06,1.67-1.05,1.12-1.58,2.51-1.58,4.18s.52,3.12,1.57,4.24c1.04,1.12,2.36,1.67,3.95,1.67.81,0,1.61-.18,2.38-.54.77-.36,1.43-.85,1.98-1.47v-2.35h-2.37v-1.22h3.65v6.62h-1.24v-1.04l.02-.59h-.04c-.51.57-1.17,1.02-1.97,1.36-.8.34-1.65.51-2.54.51-1.92,0-3.53-.68-4.84-2.05-1.31-1.37-1.96-3.07-1.96-5.12Z" style="fill: #76e4b4; stroke-width: 0px;"/>
    <path d="M294.9,165.93v-6.31h1.36v5.95c0,.93.14,1.66.42,2.17.28.51.86.77,1.72.77,1.09,0,1.97-.41,2.65-1.22.68-.81,1.02-1.79,1.02-2.92v-4.75h1.34v9.91h-1.32v-1.56l.08-.79h-.04c-.24.62-.7,1.2-1.39,1.75-.69.55-1.53.83-2.51.83-1.16,0-2-.32-2.53-.95-.53-.63-.8-1.6-.8-2.9Z" style="fill: #76e4b4; stroke-width: 0px;"/>
    <path d="M306.61,169.54v-9.91h1.32v1.56l-.08.79h.04c.25-.68.73-1.28,1.44-1.8.71-.52,1.45-.78,2.21-.78,1.75,0,2.77.83,3.05,2.48h.04c.29-.67.77-1.25,1.45-1.74.68-.49,1.41-.74,2.2-.74,1.17,0,2.01.32,2.52.97.51.64.77,1.6.77,2.88v6.31h-1.34v-5.97c0-.93-.15-1.66-.44-2.17-.29-.51-.86-.77-1.68-.77-.96,0-1.75.42-2.38,1.25-.63.83-.95,1.79-.95,2.87v4.79h-1.34v-5.97c0-.92-.14-1.64-.41-2.16-.28-.52-.83-.78-1.68-.78-.97,0-1.78.42-2.42,1.27-.64.85-.97,1.8-.97,2.85v4.79h-1.34Z" style="fill: #76e4b4; stroke-width: 0px;"/>
    <path d="M323.79,166.88c0-2.3,2.01-3.45,6.03-3.45h.59v-.28c0-1.71-.82-2.56-2.44-2.56-1.01,0-1.95.32-2.82.95l-.61-1.02c.39-.34.91-.61,1.56-.82.64-.2,1.29-.31,1.95-.31,1.2,0,2.11.33,2.75.98.64.65.96,1.59.96,2.83v6.35h-1.28v-1.16l.06-.83h-.04c-.28.63-.71,1.16-1.31,1.59-.6.43-1.28.64-2.04.64-.91,0-1.69-.26-2.36-.77-.66-.51-1-1.22-1-2.13ZM325.15,166.76c0,.5.2.94.59,1.32.39.38.94.57,1.64.57.91,0,1.64-.38,2.2-1.14.56-.76.84-1.62.84-2.56v-.45h-.57c-.42,0-.79,0-1.09.02-.31.01-.71.06-1.2.15-.49.09-.9.2-1.21.34s-.59.37-.83.67c-.24.3-.36.66-.36,1.08Z" style="fill: #76e4b4; stroke-width: 0px;"/>
    <path d="M334.85,169.54v-9.91h1.32v1.83l-.08.79h.04c.26-.79.67-1.44,1.23-1.95.56-.51,1.21-.77,1.94-.77.2,0,.37.02.53.06v1.32c-.08-.03-.24-.04-.49-.04-.7,0-1.29.24-1.79.73-.5.49-.85,1.05-1.05,1.7-.2.65-.31,1.33-.31,2.04v4.2h-1.34Z" style="fill: #76e4b4; stroke-width: 0px;"/>
    <path d="M341.88,169.54v-13.86h1.34v4.89l-.06.83h.04c.3-.62.75-1.11,1.36-1.47.6-.36,1.28-.54,2.03-.54,1.33,0,2.38.48,3.15,1.43.78.95,1.16,2.2,1.16,3.75s-.41,2.82-1.24,3.77c-.83.95-1.91,1.43-3.23,1.43-.7,0-1.34-.18-1.93-.55-.59-.37-1.04-.86-1.36-1.48h-.04c.04.22.06.49.06.81v.99h-1.28ZM343.19,164.61c0,1.08.28,2.01.83,2.79.55.78,1.33,1.17,2.33,1.17.91,0,1.67-.36,2.29-1.07.62-.72.93-1.68.93-2.91s-.29-2.16-.88-2.89c-.58-.73-1.34-1.09-2.28-1.09s-1.67.33-2.29,1c-.62.67-.93,1.67-.93,3Z" style="fill: #76e4b4; stroke-width: 0px;"/>
    <path d="M352.82,164.59c0-1.58.47-2.84,1.41-3.78.94-.95,2.11-1.42,3.5-1.42,1.31,0,2.33.44,3.05,1.31.72.87,1.08,1.96,1.08,3.26,0,.16-.01.38-.04.67h-7.61c.03,1.22.41,2.18,1.14,2.88.74.7,1.64,1.04,2.7,1.04,1.14,0,2.15-.39,3.02-1.18l.61,1.02c-.46.42-1.02.76-1.68,1.01-.66.25-1.32.37-1.98.37-1.49,0-2.72-.49-3.72-1.46s-1.49-2.21-1.49-3.73ZM354.28,163.57h6.23c-.04-.99-.32-1.74-.85-2.28-.53-.53-1.18-.8-1.97-.8-.85,0-1.6.27-2.23.81s-1.03,1.29-1.18,2.27Z" style="fill: #76e4b4; stroke-width: 0px;"/>
    <path d="M364.39,169.54v-13.86h1.34v7.73h1.6l2.96-3.78h1.62l-3.45,4.32v.04l3.8,5.56h-1.62l-3.29-4.95h-1.62v4.95h-1.34Z" style="fill: #76e4b4; stroke-width: 0px;"/>
    <path d="M379.49,169.54v-13.86h4.45c2.12,0,3.8.61,5.07,1.84,1.26,1.23,1.89,2.92,1.89,5.08s-.63,3.87-1.89,5.09c-1.26,1.23-2.95,1.84-5.07,1.84h-4.45ZM380.85,168.32h2.96c1.73,0,3.11-.5,4.14-1.49,1.03-.99,1.54-2.4,1.54-4.23s-.51-3.22-1.54-4.21c-1.02-.99-2.4-1.49-4.14-1.49h-2.96v11.41Z" style="fill: #76e4b4; stroke-width: 0px;"/>
    <path d="M392.63,166.88c0-2.3,2.01-3.45,6.03-3.45h.59v-.28c0-1.71-.82-2.56-2.44-2.56-1.01,0-1.95.32-2.82.95l-.61-1.02c.39-.34.91-.61,1.56-.82.64-.2,1.29-.31,1.95-.31,1.2,0,2.11.33,2.75.98.64.65.96,1.59.96,2.83v6.35h-1.28v-1.16l.06-.83h-.04c-.28.63-.71,1.16-1.31,1.59-.6.43-1.28.64-2.04.64-.91,0-1.69-.26-2.36-.77-.66-.51-1-1.22-1-2.13ZM393.99,166.76c0,.5.2.94.59,1.32.39.38.94.57,1.64.57.91,0,1.64-.38,2.2-1.14.56-.76.84-1.62.84-2.56v-.45h-.57c-.42,0-.79,0-1.09.02-.31.01-.71.06-1.2.15-.49.09-.9.2-1.21.34s-.59.37-.83.67c-.24.3-.36.66-.36,1.08Z" style="fill: #76e4b4; stroke-width: 0px;"/>
    <path d="M403.57,165.93v-6.31h1.36v5.95c0,.93.14,1.66.42,2.17.28.51.86.77,1.72.77,1.09,0,1.97-.41,2.65-1.22.68-.81,1.02-1.79,1.02-2.92v-4.75h1.34v9.91h-1.32v-1.56l.08-.79h-.04c-.24.62-.7,1.2-1.39,1.75-.69.55-1.53.83-2.51.83-1.16,0-2-.32-2.53-.95-.53-.63-.8-1.6-.8-2.9Z" style="fill: #76e4b4; stroke-width: 0px;"/>
    <path d="M415.28,169.54v-13.86h1.34v7.73h1.6l2.96-3.78h1.62l-3.45,4.32v.04l3.8,5.56h-1.62l-3.29-4.95h-1.62v4.95h-1.34Z" style="fill: #76e4b4; stroke-width: 0px;"/>
    <path d="M423.99,164.59c0-1.58.47-2.84,1.41-3.78.94-.95,2.11-1.42,3.5-1.42,1.31,0,2.33.44,3.05,1.31.72.87,1.08,1.96,1.08,3.26,0,.16-.01.38-.04.67h-7.61c.03,1.22.41,2.18,1.14,2.88.74.7,1.64,1.04,2.7,1.04,1.14,0,2.15-.39,3.02-1.18l.61,1.02c-.46.42-1.02.76-1.68,1.01-.66.25-1.32.37-1.98.37-1.49,0-2.72-.49-3.72-1.46s-1.49-2.21-1.49-3.73ZM425.45,163.57h6.23c-.04-.99-.32-1.74-.85-2.28-.53-.53-1.18-.8-1.97-.8-.85,0-1.6.27-2.23.81s-1.03,1.29-1.18,2.27Z" style="fill: #76e4b4; stroke-width: 0px;"/>
    <path d="M434.59,172.02c.37.3.76.45,1.18.45.79,0,1.42-.54,1.89-1.62l.59-1.42-4.12-9.81h1.48l2.9,7.23.38,1.04h.04c.09-.37.2-.72.33-1.04l2.86-7.23h1.44l-4.89,11.98c-.26.64-.64,1.15-1.13,1.52-.49.37-1.06.55-1.7.55-.3,0-.6-.05-.9-.15-.29-.1-.51-.19-.64-.29l-.22-.16.51-1.06Z" style="fill: #76e4b4; stroke-width: 0px;"/>
    <path d="M444.67,164.59c0-1.58.47-2.84,1.41-3.78.94-.95,2.11-1.42,3.5-1.42,1.31,0,2.33.44,3.05,1.31.72.87,1.08,1.96,1.08,3.26,0,.16-.01.38-.04.67h-7.61c.03,1.22.41,2.18,1.14,2.88.74.7,1.64,1.04,2.7,1.04,1.14,0,2.15-.39,3.02-1.18l.61,1.02c-.46.42-1.02.76-1.68,1.01-.66.25-1.32.37-1.98.37-1.49,0-2.72-.49-3.72-1.46s-1.49-2.21-1.49-3.73ZM446.12,163.57h6.23c-.04-.99-.32-1.74-.85-2.28-.53-.53-1.18-.8-1.97-.8-.85,0-1.6.27-2.23.81s-1.03,1.29-1.18,2.27Z" style="fill: #76e4b4; stroke-width: 0px;"/>
    <path d="M458.74,169.54l-3.82-9.91h1.44l2.74,7.27.33,1.2h.04c.12-.47.24-.87.35-1.2l2.74-7.27h1.42l-3.78,9.91h-1.46Z" style="fill: #76e4b4; stroke-width: 0px;"/>
  </g>
</svg>